<mxfile host="app.diagrams.net" agent="Mozilla/5.0 (Windows NT 10.0; Win64; x64) AppleWebKit/537.36 (KHTML, like Gecko) Chrome/128.0.0.0 Safari/537.36" version="24.7.8">
  <diagram name="Página-1" id="xcMQYh0L4b8SNXelIsxy">
    <mxGraphModel dx="2227" dy="1865" grid="1" gridSize="10" guides="1" tooltips="1" connect="1" arrows="1" fold="1" page="1" pageScale="1" pageWidth="827" pageHeight="1169" math="0" shadow="0">
      <root>
        <mxCell id="0" />
        <mxCell id="1" parent="0" />
        <mxCell id="oq1mm7NXk6ubCHMGpvL8-97" value="" style="verticalLabelPosition=bottom;verticalAlign=top;html=1;shape=mxgraph.basic.rect;fillColor2=none;strokeWidth=1;size=20;indent=5;" vertex="1" parent="1">
          <mxGeometry x="-690" y="-100" width="590" height="600" as="geometry" />
        </mxCell>
        <mxCell id="oq1mm7NXk6ubCHMGpvL8-5" style="edgeStyle=orthogonalEdgeStyle;rounded=0;orthogonalLoop=1;jettySize=auto;html=1;endArrow=none;endFill=0;dashed=1;dashPattern=8 8;" edge="1" parent="1" source="oq1mm7NXk6ubCHMGpvL8-28" target="oq1mm7NXk6ubCHMGpvL8-61">
          <mxGeometry relative="1" as="geometry">
            <mxPoint x="-660" y="192.8235581341912" as="targetPoint" />
            <Array as="points">
              <mxPoint x="-660" y="10" />
              <mxPoint x="-660" y="10" />
            </Array>
          </mxGeometry>
        </mxCell>
        <mxCell id="oq1mm7NXk6ubCHMGpvL8-1" value="&lt;p style=&quot;margin-bottom: 0cm&quot;&gt;&lt;font face=&quot;Courier New, serif&quot;&gt;&lt;font style=&quot;font-size: 10pt&quot;&gt;&lt;span style=&quot;background: #ffffff&quot;&gt;Crear&lt;br&gt;un diagrama de secuencia relacionado con usar Tinder para obtener un&lt;br&gt;&quot;match&quot;.&lt;/span&gt;&lt;/font&gt;&lt;/font&gt;&lt;/p&gt;&lt;p style=&quot;margin-bottom: 0cm&quot;&gt;&lt;font face=&quot;Courier New, serif&quot;&gt;&lt;font style=&quot;font-size: 10pt&quot;&gt;&lt;span style=&quot;background: #ffffff&quot;&gt;Vamos a utilizar tres actores: Usuario, Interfaz Gráfica y Sistema de la&lt;br&gt;Aplicación.&lt;/span&gt;&lt;/font&gt;&lt;/font&gt;&lt;/p&gt;&lt;p style=&quot;margin-bottom: 0cm&quot;&gt;&lt;font face=&quot;Courier New, serif&quot;&gt;&lt;font style=&quot;font-size: 10pt&quot;&gt;&lt;span style=&quot;background: #ffffff&quot;&gt;Pasos:&lt;/span&gt;&lt;/font&gt;&lt;/font&gt;&lt;/p&gt;&lt;p style=&quot;margin-bottom: 0cm&quot;&gt;&lt;font face=&quot;Courier New, serif&quot;&gt;&lt;font style=&quot;font-size: 10pt&quot;&gt;&lt;span style=&quot;background: #ffffff&quot;&gt;1.- Usuario abre la aplicación Tinder:&amp;nbsp;&lt;/span&gt;&lt;/font&gt;&lt;/font&gt;&lt;span style=&quot;background-color: rgb(255, 255, 255); font-size: 10pt; font-family: &amp;quot;Courier New&amp;quot;, serif;&quot;&gt;Usuario&amp;nbsp;&lt;/span&gt;&lt;span style=&quot;background-color: rgb(255, 255, 255); font-size: 10pt; font-family: &amp;quot;Courier New&amp;quot;, serif;&quot;&gt;-&amp;gt; Interfaz Gráfica: El usuario abre la aplicación en su&amp;nbsp;&lt;/span&gt;&lt;span style=&quot;background-color: rgb(255, 255, 255); font-size: 10pt; font-family: &amp;quot;Courier New&amp;quot;, serif;&quot;&gt;dispositivo.&lt;/span&gt;&lt;/p&gt;&lt;p style=&quot;margin-bottom: 0cm&quot;&gt;&lt;font face=&quot;Courier New, serif&quot;&gt;&lt;font style=&quot;font-size: 10pt&quot;&gt;&lt;span style=&quot;background: #ffffff&quot;&gt;&#x9;InterfazGráfica -&amp;gt; Sistema de la Aplicación: La interfaz solicita al sistema cargar los perfiles de otros usuarios.&lt;/span&gt;&lt;/font&gt;&lt;/font&gt;&lt;/p&gt;&lt;p style=&quot;margin-bottom: 0cm&quot;&gt;&lt;font face=&quot;Courier New, serif&quot;&gt;&lt;font style=&quot;font-size: 10pt&quot;&gt;&lt;span style=&quot;background: #ffffff&quot;&gt;2.- Sistema carga posibles coincidencias:&lt;/span&gt;&lt;/font&gt;&lt;/font&gt;&lt;/p&gt;&lt;p style=&quot;margin-bottom: 0cm&quot;&gt;&lt;font face=&quot;Courier New, serif&quot;&gt;&lt;font style=&quot;font-size: 10pt&quot;&gt;&lt;span style=&quot;background: #ffffff&quot;&gt;&#x9;Sistema de la Aplicación -&amp;gt; Interfaz Gráfica: El sistema envía una lista de perfiles que coinciden con las preferencias del usuario.&lt;/span&gt;&lt;/font&gt;&lt;/font&gt;&lt;/p&gt;&lt;p style=&quot;margin-bottom: 0cm&quot;&gt;&lt;font face=&quot;Courier New, serif&quot;&gt;&lt;font style=&quot;font-size: 10pt&quot;&gt;&lt;span style=&quot;background: #ffffff&quot;&gt;&#x9;Interfaz Gráfica: La interfaz muestra el primer perfil al usuario.&lt;/span&gt;&lt;/font&gt;&lt;/font&gt;&lt;/p&gt;&lt;p style=&quot;margin-bottom: 0cm&quot;&gt;&lt;font face=&quot;Courier New, serif&quot;&gt;&lt;font style=&quot;font-size: 10pt&quot;&gt;&lt;span style=&quot;background: #ffffff&quot;&gt;3.- Usuario ve un perfil:&amp;nbsp;&lt;/span&gt;&lt;/font&gt;&lt;/font&gt;&lt;span style=&quot;background-color: rgb(255, 255, 255); font-size: 10pt; font-family: &amp;quot;Courier New&amp;quot;, serif;&quot;&gt;Usuario &lt;/span&gt;&lt;span style=&quot;background-color: rgb(255, 255, 255); font-size: 10pt; font-family: &amp;quot;Courier New&amp;quot;, serif;&quot;&gt;-&amp;gt; Interfaz Gráfica: El usuario revisa el perfil presentado, que&amp;nbsp;&lt;/span&gt;&lt;span style=&quot;background-color: rgb(255, 255, 255); font-size: 10pt; font-family: &amp;quot;Courier New&amp;quot;, serif;&quot;&gt;incluye fotos, nombre, descripción, etc.&lt;/span&gt;&lt;/p&gt;&lt;p style=&quot;margin-bottom: 0cm&quot;&gt;&lt;font face=&quot;Courier New, serif&quot;&gt;&lt;font style=&quot;font-size: 10pt&quot;&gt;&lt;span style=&quot;background: #ffffff&quot;&gt;4.- Usuario desliza a la derecha (Like) o a la izquierda (Dislike):&amp;nbsp;&lt;/span&gt;&lt;/font&gt;&lt;/font&gt;&lt;span style=&quot;background-color: rgb(255, 255, 255); font-size: 10pt; font-family: &amp;quot;Courier New&amp;quot;, serif;&quot;&gt;Usuario &lt;/span&gt;&lt;span style=&quot;background-color: rgb(255, 255, 255); font-size: 10pt; font-family: &amp;quot;Courier New&amp;quot;, serif;&quot;&gt;-&amp;gt; Interfaz Gráfica: El usuario realiza una acción:&amp;nbsp;&lt;/span&gt;&lt;/p&gt;&lt;p style=&quot;margin-bottom: 0cm&quot;&gt;&lt;span style=&quot;background-color: rgb(255, 255, 255); font-size: 10pt; font-family: &amp;quot;Courier New&amp;quot;, serif;&quot;&gt;Interfaz&lt;/span&gt;&lt;span style=&quot;background-color: rgb(255, 255, 255); font-size: 10pt; font-family: &amp;quot;Courier New&amp;quot;, serif;&quot;&gt;Gráfica: La interfaz visualiza la acción del usuario.&lt;/span&gt;&lt;/p&gt;&lt;p style=&quot;margin-bottom: 0cm&quot;&gt;&lt;font face=&quot;Courier New, serif&quot;&gt;&lt;font style=&quot;font-size: 10pt&quot;&gt;&lt;span style=&quot;background: #ffffff&quot;&gt;&#x9;Interfaz Gráfica -&amp;gt; Sistema de la Aplicación: La interfaz notifica al sistema sobre la acción del usuario (like o dislike).&lt;/span&gt;&lt;/font&gt;&lt;/font&gt;&lt;/p&gt;&lt;p style=&quot;margin-bottom: 0cm&quot;&gt;&lt;font face=&quot;Courier New, serif&quot;&gt;&lt;font style=&quot;font-size: 10pt&quot;&gt;&lt;span style=&quot;background: #ffffff&quot;&gt;5.- Sistema verifica si hay &quot;match&quot;:&amp;nbsp;&lt;/span&gt;&lt;/font&gt;&lt;/font&gt;&lt;span style=&quot;background-color: rgb(255, 255, 255); font-size: 10pt; font-family: &amp;quot;Courier New&amp;quot;, serif;&quot;&gt;Sistema &lt;/span&gt;&lt;span style=&quot;background-color: rgb(255, 255, 255); font-size: 10pt; font-family: &amp;quot;Courier New&amp;quot;, serif;&quot;&gt;de la Aplicación:&lt;/span&gt;&lt;/p&gt;&lt;p style=&quot;margin-bottom: 0cm&quot;&gt;&lt;font face=&quot;Courier New, serif&quot;&gt;&lt;font style=&quot;font-size: 10pt&quot;&gt;&lt;span style=&quot;background: #ffffff&quot;&gt;&#x9;Si el usuario deslizó a la derecha (like), el sistema verifica si la otra persona también ha deslizado a la derecha en el perfil &#x9;del&lt;br&gt;usuario.&lt;/span&gt;&lt;/font&gt;&lt;/font&gt;&lt;/p&gt;&lt;p style=&quot;margin-bottom: 0cm&quot;&gt;&lt;font face=&quot;Courier New, serif&quot;&gt;&lt;font style=&quot;font-size: 10pt&quot;&gt;&lt;span style=&quot;background: #ffffff&quot;&gt;&#x9;Si deslizó a la izquierda (dislike), el sistema no realiza más acciones y pasa al siguiente perfil.&lt;/span&gt;&lt;/font&gt;&lt;/font&gt;&lt;/p&gt;&lt;p style=&quot;margin-bottom: 0cm&quot;&gt;&lt;font face=&quot;Courier New, serif&quot;&gt;&lt;font style=&quot;font-size: 10pt&quot;&gt;&lt;span style=&quot;background: #ffffff&quot;&gt;&#x9;Sistema de la Aplicación -&amp;gt; Interfaz Gráfica:&lt;/span&gt;&lt;/font&gt;&lt;/font&gt;&lt;/p&gt;&lt;p style=&quot;margin-bottom: 0cm&quot;&gt;&lt;font face=&quot;Courier New, serif&quot;&gt;&lt;font style=&quot;font-size: 10pt&quot;&gt;&lt;span style=&quot;background: #ffffff&quot;&gt;&#x9;Si no hay match: La interfaz gráfica se actualiza para mostrar el siguiente perfil.&lt;/span&gt;&lt;/font&gt;&lt;/font&gt;&lt;/p&gt;&lt;p style=&quot;margin-bottom: 0cm&quot;&gt;&lt;font face=&quot;Courier New, serif&quot;&gt;&lt;font style=&quot;font-size: 10pt&quot;&gt;&lt;span style=&quot;background: #ffffff&quot;&gt;&#x9;Si hay match: La interfaz gráfica muestra una notificación de &quot;match&quot;.&lt;/span&gt;&lt;/font&gt;&lt;/font&gt;&lt;/p&gt;&lt;p style=&quot;margin-bottom: 0cm&quot;&gt;&lt;font face=&quot;Courier New, serif&quot;&gt;&lt;font style=&quot;font-size: 10pt&quot;&gt;&lt;span style=&quot;background: #ffffff&quot;&gt;6.- Notificación de &quot;Match&quot; al Usuario:&lt;/span&gt;&lt;/font&gt;&lt;/font&gt;&lt;/p&gt;&lt;p style=&quot;margin-bottom: 0cm&quot;&gt;&lt;font face=&quot;Courier New, serif&quot;&gt;&lt;font style=&quot;font-size: 10pt&quot;&gt;&lt;span style=&quot;background: #ffffff&quot;&gt;&#x9;Interfaz Gráfica -&amp;gt; Usuario: La interfaz gráfica notifica al usuario que se ha producido un &quot;match&quot; con otro usuario.&lt;/span&gt;&lt;/font&gt;&lt;/font&gt;&lt;/p&gt;&lt;p style=&quot;margin-bottom: 0cm&quot;&gt;&lt;font face=&quot;Courier New, serif&quot;&gt;&lt;font style=&quot;font-size: 10pt&quot;&gt;&lt;span style=&quot;background: #ffffff&quot;&gt;&#x9;Sistema de la Aplicación -&amp;gt; Interfaz Gráfica: El sistema habilita la función de chat entre los dos usuarios que hicieron &quot;match&quot;.&lt;/span&gt;&lt;/font&gt;&lt;/font&gt;&lt;/p&gt;&lt;p style=&quot;margin-bottom: 0cm&quot;&gt;&lt;font face=&quot;Courier New, serif&quot;&gt;&lt;font style=&quot;font-size: 10pt&quot;&gt;&lt;span style=&quot;background: #ffffff&quot;&gt;7.- Interfaz Gráfica: La interfaz gráfica actualiza la UI para permitir que los usuarios comiencen a chatear.&lt;/span&gt;&lt;/font&gt;&lt;/font&gt;&lt;/p&gt;" style="text;html=1;align=left;verticalAlign=middle;resizable=0;points=[];autosize=1;strokeColor=none;fillColor=none;" vertex="1" parent="1">
          <mxGeometry x="-820" y="-1160" width="1140" height="690" as="geometry" />
        </mxCell>
        <mxCell id="oq1mm7NXk6ubCHMGpvL8-2" value="Usuario" style="rounded=0;whiteSpace=wrap;html=1;" vertex="1" parent="1">
          <mxGeometry x="-720" y="-400" width="120" height="60" as="geometry" />
        </mxCell>
        <mxCell id="oq1mm7NXk6ubCHMGpvL8-3" value="Interfaz Gráfica" style="rounded=0;whiteSpace=wrap;html=1;" vertex="1" parent="1">
          <mxGeometry x="-470" y="-400" width="120" height="60" as="geometry" />
        </mxCell>
        <mxCell id="oq1mm7NXk6ubCHMGpvL8-7" style="edgeStyle=orthogonalEdgeStyle;rounded=0;orthogonalLoop=1;jettySize=auto;html=1;endArrow=none;endFill=0;dashed=1;dashPattern=8 8;exitX=0.5;exitY=1;exitDx=0;exitDy=0;" edge="1" parent="1" source="oq1mm7NXk6ubCHMGpvL8-57">
          <mxGeometry relative="1" as="geometry">
            <mxPoint x="-410" y="220" as="targetPoint" />
            <mxPoint x="-400" y="-330" as="sourcePoint" />
            <Array as="points">
              <mxPoint x="-410" y="203" />
            </Array>
          </mxGeometry>
        </mxCell>
        <mxCell id="oq1mm7NXk6ubCHMGpvL8-8" style="edgeStyle=orthogonalEdgeStyle;rounded=0;orthogonalLoop=1;jettySize=auto;html=1;endArrow=none;endFill=0;dashed=1;dashPattern=8 8;exitX=0.5;exitY=1;exitDx=0;exitDy=0;" edge="1" parent="1" source="oq1mm7NXk6ubCHMGpvL8-52">
          <mxGeometry relative="1" as="geometry">
            <mxPoint x="-130" y="270" as="targetPoint" />
            <mxPoint x="-130.58999999999997" y="-350" as="sourcePoint" />
          </mxGeometry>
        </mxCell>
        <mxCell id="oq1mm7NXk6ubCHMGpvL8-4" value="Sistema de la aplicación" style="rounded=0;whiteSpace=wrap;html=1;" vertex="1" parent="1">
          <mxGeometry x="-190" y="-400" width="120" height="60" as="geometry" />
        </mxCell>
        <mxCell id="oq1mm7NXk6ubCHMGpvL8-16" style="edgeStyle=orthogonalEdgeStyle;rounded=0;orthogonalLoop=1;jettySize=auto;html=1;curved=0;endArrow=open;endFill=0;" edge="1" parent="1" source="oq1mm7NXk6ubCHMGpvL8-13" target="oq1mm7NXk6ubCHMGpvL8-14">
          <mxGeometry relative="1" as="geometry">
            <Array as="points">
              <mxPoint x="-540" y="-250" />
              <mxPoint x="-540" y="-250" />
            </Array>
          </mxGeometry>
        </mxCell>
        <mxCell id="oq1mm7NXk6ubCHMGpvL8-17" value="Abrir app" style="edgeLabel;html=1;align=center;verticalAlign=middle;resizable=0;points=[];" vertex="1" connectable="0" parent="oq1mm7NXk6ubCHMGpvL8-16">
          <mxGeometry x="-0.0211" y="-2" relative="1" as="geometry">
            <mxPoint y="-3" as="offset" />
          </mxGeometry>
        </mxCell>
        <mxCell id="oq1mm7NXk6ubCHMGpvL8-30" style="edgeStyle=orthogonalEdgeStyle;rounded=0;orthogonalLoop=1;jettySize=auto;html=1;curved=0;dashed=1;dashPattern=8 8;endArrow=none;endFill=0;" edge="1" parent="1" source="oq1mm7NXk6ubCHMGpvL8-13" target="oq1mm7NXk6ubCHMGpvL8-28">
          <mxGeometry relative="1" as="geometry">
            <Array as="points">
              <mxPoint x="-660" y="-170" />
              <mxPoint x="-660" y="-170" />
            </Array>
          </mxGeometry>
        </mxCell>
        <mxCell id="oq1mm7NXk6ubCHMGpvL8-13" value="" style="html=1;points=[[0,0,0,0,5],[0,1,0,0,-5],[1,0,0,0,5],[1,1,0,0,-5]];perimeter=orthogonalPerimeter;outlineConnect=0;targetShapes=umlLifeline;portConstraint=eastwest;newEdgeStyle={&quot;curved&quot;:0,&quot;rounded&quot;:0};" vertex="1" parent="1">
          <mxGeometry x="-665" y="-260" width="10" height="100" as="geometry" />
        </mxCell>
        <mxCell id="oq1mm7NXk6ubCHMGpvL8-15" value="" style="edgeStyle=orthogonalEdgeStyle;rounded=0;orthogonalLoop=1;jettySize=auto;html=1;endArrow=none;endFill=0;dashed=1;dashPattern=8 8;exitX=0.5;exitY=1;exitDx=0;exitDy=0;entryX=0.503;entryY=0;entryDx=0;entryDy=0;entryPerimeter=0;" edge="1" parent="1" source="oq1mm7NXk6ubCHMGpvL8-3" target="oq1mm7NXk6ubCHMGpvL8-14">
          <mxGeometry relative="1" as="geometry">
            <mxPoint x="-410" y="220" as="targetPoint" />
            <mxPoint x="-410" y="-340" as="sourcePoint" />
            <Array as="points" />
          </mxGeometry>
        </mxCell>
        <mxCell id="oq1mm7NXk6ubCHMGpvL8-14" value="" style="html=1;points=[[0,0,0,0,5],[0,1,0,0,-5],[1,0,0,0,5],[1,1,0,0,-5]];perimeter=orthogonalPerimeter;outlineConnect=0;targetShapes=umlLifeline;portConstraint=eastwest;newEdgeStyle={&quot;curved&quot;:0,&quot;rounded&quot;:0};" vertex="1" parent="1">
          <mxGeometry x="-415" y="-260" width="10" height="100" as="geometry" />
        </mxCell>
        <mxCell id="oq1mm7NXk6ubCHMGpvL8-19" value="" style="edgeStyle=orthogonalEdgeStyle;rounded=0;orthogonalLoop=1;jettySize=auto;html=1;endArrow=none;endFill=0;dashed=1;dashPattern=8 8;exitX=0.5;exitY=1;exitDx=0;exitDy=0;" edge="1" parent="1" source="oq1mm7NXk6ubCHMGpvL8-4" target="oq1mm7NXk6ubCHMGpvL8-18">
          <mxGeometry relative="1" as="geometry">
            <mxPoint x="-130" y="-270" as="targetPoint" />
            <mxPoint x="-130" y="-340" as="sourcePoint" />
            <Array as="points">
              <mxPoint x="-130" y="-260" />
              <mxPoint x="-130" y="-260" />
            </Array>
          </mxGeometry>
        </mxCell>
        <mxCell id="oq1mm7NXk6ubCHMGpvL8-18" value="" style="html=1;points=[[0,0,0,0,5],[0,1,0,0,-5],[1,0,0,0,5],[1,1,0,0,-5]];perimeter=orthogonalPerimeter;outlineConnect=0;targetShapes=umlLifeline;portConstraint=eastwest;newEdgeStyle={&quot;curved&quot;:0,&quot;rounded&quot;:0};" vertex="1" parent="1">
          <mxGeometry x="-135" y="-260" width="10" height="80" as="geometry" />
        </mxCell>
        <mxCell id="oq1mm7NXk6ubCHMGpvL8-20" style="edgeStyle=orthogonalEdgeStyle;rounded=0;orthogonalLoop=1;jettySize=auto;html=1;curved=0;endArrow=open;endFill=0;" edge="1" parent="1" source="oq1mm7NXk6ubCHMGpvL8-14" target="oq1mm7NXk6ubCHMGpvL8-18">
          <mxGeometry relative="1" as="geometry">
            <mxPoint x="-390" y="-240" as="sourcePoint" />
            <mxPoint x="-150" y="-240" as="targetPoint" />
            <Array as="points">
              <mxPoint x="-270" y="-240" />
              <mxPoint x="-270" y="-240" />
            </Array>
          </mxGeometry>
        </mxCell>
        <mxCell id="oq1mm7NXk6ubCHMGpvL8-21" value="Solicitar cargar perfiles" style="edgeLabel;html=1;align=center;verticalAlign=middle;resizable=0;points=[];" vertex="1" connectable="0" parent="oq1mm7NXk6ubCHMGpvL8-20">
          <mxGeometry x="-0.0211" y="-2" relative="1" as="geometry">
            <mxPoint y="-3" as="offset" />
          </mxGeometry>
        </mxCell>
        <mxCell id="oq1mm7NXk6ubCHMGpvL8-22" style="edgeStyle=orthogonalEdgeStyle;rounded=0;orthogonalLoop=1;jettySize=auto;html=1;curved=0;startArrow=open;startFill=0;endArrow=none;endFill=0;dashed=1;" edge="1" parent="1">
          <mxGeometry relative="1" as="geometry">
            <mxPoint x="-405" y="-190" as="sourcePoint" />
            <mxPoint x="-135" y="-190" as="targetPoint" />
            <Array as="points" />
          </mxGeometry>
        </mxCell>
        <mxCell id="oq1mm7NXk6ubCHMGpvL8-23" value="Enviar posibles coincidencias" style="edgeLabel;html=1;align=center;verticalAlign=middle;resizable=0;points=[];" vertex="1" connectable="0" parent="oq1mm7NXk6ubCHMGpvL8-22">
          <mxGeometry x="-0.0211" y="-2" relative="1" as="geometry">
            <mxPoint y="-3" as="offset" />
          </mxGeometry>
        </mxCell>
        <mxCell id="oq1mm7NXk6ubCHMGpvL8-24" style="edgeStyle=orthogonalEdgeStyle;rounded=0;orthogonalLoop=1;jettySize=auto;html=1;curved=0;startArrow=open;startFill=0;endArrow=none;endFill=0;dashed=1;" edge="1" parent="1" source="oq1mm7NXk6ubCHMGpvL8-13" target="oq1mm7NXk6ubCHMGpvL8-14">
          <mxGeometry relative="1" as="geometry">
            <mxPoint x="-395" y="-180" as="sourcePoint" />
            <mxPoint x="-125" y="-180" as="targetPoint" />
            <Array as="points">
              <mxPoint x="-540" y="-180" />
              <mxPoint x="-540" y="-180" />
            </Array>
          </mxGeometry>
        </mxCell>
        <mxCell id="oq1mm7NXk6ubCHMGpvL8-25" value="Mostrar el primer perfil" style="edgeLabel;html=1;align=center;verticalAlign=middle;resizable=0;points=[];" vertex="1" connectable="0" parent="oq1mm7NXk6ubCHMGpvL8-24">
          <mxGeometry x="-0.0211" y="-2" relative="1" as="geometry">
            <mxPoint y="-3" as="offset" />
          </mxGeometry>
        </mxCell>
        <mxCell id="oq1mm7NXk6ubCHMGpvL8-26" style="edgeStyle=orthogonalEdgeStyle;rounded=0;orthogonalLoop=1;jettySize=auto;html=1;curved=0;endArrow=open;endFill=0;" edge="1" parent="1">
          <mxGeometry relative="1" as="geometry">
            <mxPoint x="-655" y="-120" as="sourcePoint" />
            <mxPoint x="-415" y="-120" as="targetPoint" />
            <Array as="points" />
          </mxGeometry>
        </mxCell>
        <mxCell id="oq1mm7NXk6ubCHMGpvL8-27" value="Revisar perfil" style="edgeLabel;html=1;align=center;verticalAlign=middle;resizable=0;points=[];" vertex="1" connectable="0" parent="oq1mm7NXk6ubCHMGpvL8-26">
          <mxGeometry x="-0.0211" y="-2" relative="1" as="geometry">
            <mxPoint y="-3" as="offset" />
          </mxGeometry>
        </mxCell>
        <mxCell id="oq1mm7NXk6ubCHMGpvL8-29" value="" style="edgeStyle=orthogonalEdgeStyle;rounded=0;orthogonalLoop=1;jettySize=auto;html=1;endArrow=none;endFill=0;dashed=1;dashPattern=8 8;" edge="1" parent="1" source="oq1mm7NXk6ubCHMGpvL8-2" target="oq1mm7NXk6ubCHMGpvL8-13">
          <mxGeometry relative="1" as="geometry">
            <mxPoint x="-660" y="192.8235581341912" as="targetPoint" />
            <mxPoint x="-660" y="-340" as="sourcePoint" />
            <Array as="points">
              <mxPoint x="-660" y="-240" />
              <mxPoint x="-660" y="-240" />
            </Array>
          </mxGeometry>
        </mxCell>
        <mxCell id="oq1mm7NXk6ubCHMGpvL8-28" value="" style="html=1;points=[[0,0,0,0,5],[0,1,0,0,-5],[1,0,0,0,5],[1,1,0,0,-5]];perimeter=orthogonalPerimeter;outlineConnect=0;targetShapes=umlLifeline;portConstraint=eastwest;newEdgeStyle={&quot;curved&quot;:0,&quot;rounded&quot;:0};" vertex="1" parent="1">
          <mxGeometry x="-665" y="-130" width="10" height="170" as="geometry" />
        </mxCell>
        <mxCell id="oq1mm7NXk6ubCHMGpvL8-32" value="" style="edgeStyle=orthogonalEdgeStyle;rounded=0;orthogonalLoop=1;jettySize=auto;html=1;endArrow=none;endFill=0;dashed=1;dashPattern=8 8;exitX=0.5;exitY=1;exitDx=0;exitDy=0;" edge="1" parent="1" source="oq1mm7NXk6ubCHMGpvL8-14" target="oq1mm7NXk6ubCHMGpvL8-31">
          <mxGeometry relative="1" as="geometry">
            <mxPoint x="-410" y="220" as="targetPoint" />
            <mxPoint x="-410" y="-160" as="sourcePoint" />
            <Array as="points">
              <mxPoint x="-410" y="-110" />
              <mxPoint x="-410" y="-110" />
            </Array>
          </mxGeometry>
        </mxCell>
        <mxCell id="oq1mm7NXk6ubCHMGpvL8-31" value="" style="html=1;points=[[0,0,0,0,5],[0,1,0,0,-5],[1,0,0,0,5],[1,1,0,0,-5]];perimeter=orthogonalPerimeter;outlineConnect=0;targetShapes=umlLifeline;portConstraint=eastwest;newEdgeStyle={&quot;curved&quot;:0,&quot;rounded&quot;:0};" vertex="1" parent="1">
          <mxGeometry x="-415" y="-130" width="10" height="170" as="geometry" />
        </mxCell>
        <mxCell id="oq1mm7NXk6ubCHMGpvL8-35" style="edgeStyle=orthogonalEdgeStyle;rounded=0;orthogonalLoop=1;jettySize=auto;html=1;curved=0;endArrow=open;endFill=0;" edge="1" parent="1">
          <mxGeometry relative="1" as="geometry">
            <mxPoint x="-653" y="-90" as="sourcePoint" />
            <mxPoint x="-413" y="-90" as="targetPoint" />
            <Array as="points" />
          </mxGeometry>
        </mxCell>
        <mxCell id="oq1mm7NXk6ubCHMGpvL8-36" value="Dar like" style="edgeLabel;html=1;align=center;verticalAlign=middle;resizable=0;points=[];" vertex="1" connectable="0" parent="oq1mm7NXk6ubCHMGpvL8-35">
          <mxGeometry x="-0.0211" y="-2" relative="1" as="geometry">
            <mxPoint y="-3" as="offset" />
          </mxGeometry>
        </mxCell>
        <mxCell id="oq1mm7NXk6ubCHMGpvL8-37" style="edgeStyle=orthogonalEdgeStyle;rounded=0;orthogonalLoop=1;jettySize=auto;html=1;curved=0;startArrow=open;startFill=0;endArrow=none;endFill=0;" edge="1" parent="1" source="oq1mm7NXk6ubCHMGpvL8-28" target="oq1mm7NXk6ubCHMGpvL8-31">
          <mxGeometry relative="1" as="geometry">
            <mxPoint x="-645" y="-170" as="sourcePoint" />
            <mxPoint x="-405" y="-170" as="targetPoint" />
            <Array as="points">
              <mxPoint x="-550" y="-60" />
              <mxPoint x="-550" y="-60" />
            </Array>
          </mxGeometry>
        </mxCell>
        <mxCell id="oq1mm7NXk6ubCHMGpvL8-38" value="Mostrar la animación de la acción" style="edgeLabel;html=1;align=center;verticalAlign=middle;resizable=0;points=[];" vertex="1" connectable="0" parent="oq1mm7NXk6ubCHMGpvL8-37">
          <mxGeometry x="-0.0211" y="-2" relative="1" as="geometry">
            <mxPoint y="-3" as="offset" />
          </mxGeometry>
        </mxCell>
        <mxCell id="oq1mm7NXk6ubCHMGpvL8-39" style="edgeStyle=orthogonalEdgeStyle;rounded=0;orthogonalLoop=1;jettySize=auto;html=1;curved=0;endArrow=open;endFill=0;" edge="1" parent="1" source="oq1mm7NXk6ubCHMGpvL8-31" target="oq1mm7NXk6ubCHMGpvL8-41">
          <mxGeometry relative="1" as="geometry">
            <mxPoint x="-395" y="-230" as="sourcePoint" />
            <mxPoint x="-125" y="-230" as="targetPoint" />
            <Array as="points">
              <mxPoint x="-270" y="-80" />
              <mxPoint x="-270" y="-80" />
            </Array>
          </mxGeometry>
        </mxCell>
        <mxCell id="oq1mm7NXk6ubCHMGpvL8-40" value="Notificar acción" style="edgeLabel;html=1;align=center;verticalAlign=middle;resizable=0;points=[];" vertex="1" connectable="0" parent="oq1mm7NXk6ubCHMGpvL8-39">
          <mxGeometry x="-0.0211" y="-2" relative="1" as="geometry">
            <mxPoint y="-3" as="offset" />
          </mxGeometry>
        </mxCell>
        <mxCell id="oq1mm7NXk6ubCHMGpvL8-42" value="" style="edgeStyle=orthogonalEdgeStyle;rounded=0;orthogonalLoop=1;jettySize=auto;html=1;endArrow=none;endFill=0;dashed=1;dashPattern=8 8;exitX=0.5;exitY=1;exitDx=0;exitDy=0;" edge="1" parent="1" source="oq1mm7NXk6ubCHMGpvL8-18" target="oq1mm7NXk6ubCHMGpvL8-41">
          <mxGeometry relative="1" as="geometry">
            <mxPoint x="-130" y="210" as="targetPoint" />
            <mxPoint x="-130" y="-180" as="sourcePoint" />
            <Array as="points">
              <mxPoint x="-130" y="-110" />
              <mxPoint x="-130" y="-110" />
            </Array>
          </mxGeometry>
        </mxCell>
        <mxCell id="oq1mm7NXk6ubCHMGpvL8-47" style="edgeStyle=orthogonalEdgeStyle;rounded=0;orthogonalLoop=1;jettySize=auto;html=1;curved=0;" edge="1" parent="1" source="oq1mm7NXk6ubCHMGpvL8-41" target="oq1mm7NXk6ubCHMGpvL8-31">
          <mxGeometry relative="1" as="geometry">
            <Array as="points">
              <mxPoint x="-210" y="20" />
              <mxPoint x="-210" y="20" />
            </Array>
          </mxGeometry>
        </mxCell>
        <mxCell id="oq1mm7NXk6ubCHMGpvL8-48" value="Notificar match" style="edgeLabel;html=1;align=center;verticalAlign=middle;resizable=0;points=[];" vertex="1" connectable="0" parent="oq1mm7NXk6ubCHMGpvL8-47">
          <mxGeometry x="-0.0163" y="2" relative="1" as="geometry">
            <mxPoint y="-2" as="offset" />
          </mxGeometry>
        </mxCell>
        <mxCell id="oq1mm7NXk6ubCHMGpvL8-41" value="" style="html=1;points=[[0,0,0,0,5],[0,1,0,0,-5],[1,0,0,0,5],[1,1,0,0,-5]];perimeter=orthogonalPerimeter;outlineConnect=0;targetShapes=umlLifeline;portConstraint=eastwest;newEdgeStyle={&quot;curved&quot;:0,&quot;rounded&quot;:0};" vertex="1" parent="1">
          <mxGeometry x="-135" y="-90" width="10" height="130" as="geometry" />
        </mxCell>
        <mxCell id="oq1mm7NXk6ubCHMGpvL8-45" style="edgeStyle=orthogonalEdgeStyle;rounded=0;orthogonalLoop=1;jettySize=auto;html=1;curved=0;endArrow=open;endFill=0;" edge="1" parent="1">
          <mxGeometry relative="1" as="geometry">
            <mxPoint x="-135" y="-48.0344827586207" as="sourcePoint" />
            <mxPoint x="-135" y="-23.000000000000227" as="targetPoint" />
            <Array as="points">
              <mxPoint x="-200" y="-48" />
            </Array>
          </mxGeometry>
        </mxCell>
        <mxCell id="oq1mm7NXk6ubCHMGpvL8-46" value="Verificar accion y si el otro perfil&amp;nbsp;&lt;div&gt;le dio like también&lt;/div&gt;" style="edgeLabel;html=1;align=center;verticalAlign=middle;resizable=0;points=[];" vertex="1" connectable="0" parent="oq1mm7NXk6ubCHMGpvL8-45">
          <mxGeometry x="-0.2949" y="-1" relative="1" as="geometry">
            <mxPoint x="-92" y="14" as="offset" />
          </mxGeometry>
        </mxCell>
        <mxCell id="oq1mm7NXk6ubCHMGpvL8-50" style="edgeStyle=orthogonalEdgeStyle;rounded=0;orthogonalLoop=1;jettySize=auto;html=1;curved=0;startArrow=classic;startFill=1;endArrow=none;endFill=0;" edge="1" parent="1" source="oq1mm7NXk6ubCHMGpvL8-28" target="oq1mm7NXk6ubCHMGpvL8-31">
          <mxGeometry relative="1" as="geometry">
            <mxPoint x="-653" y="30" as="sourcePoint" />
            <mxPoint x="-413" y="30" as="targetPoint" />
            <Array as="points">
              <mxPoint x="-550" y="30" />
              <mxPoint x="-550" y="30" />
            </Array>
          </mxGeometry>
        </mxCell>
        <mxCell id="oq1mm7NXk6ubCHMGpvL8-51" value="Mostrar la animación de match" style="edgeLabel;html=1;align=center;verticalAlign=middle;resizable=0;points=[];" vertex="1" connectable="0" parent="oq1mm7NXk6ubCHMGpvL8-50">
          <mxGeometry x="-0.0211" y="-2" relative="1" as="geometry">
            <mxPoint y="-3" as="offset" />
          </mxGeometry>
        </mxCell>
        <mxCell id="oq1mm7NXk6ubCHMGpvL8-53" value="" style="edgeStyle=orthogonalEdgeStyle;rounded=0;orthogonalLoop=1;jettySize=auto;html=1;endArrow=none;endFill=0;dashed=1;dashPattern=8 8;exitX=0.5;exitY=1;exitDx=0;exitDy=0;" edge="1" parent="1" source="oq1mm7NXk6ubCHMGpvL8-41" target="oq1mm7NXk6ubCHMGpvL8-52">
          <mxGeometry relative="1" as="geometry">
            <mxPoint x="-130" y="210" as="targetPoint" />
            <mxPoint x="-130" y="40" as="sourcePoint" />
            <Array as="points">
              <mxPoint x="-130" y="110" />
              <mxPoint x="-130" y="110" />
            </Array>
          </mxGeometry>
        </mxCell>
        <mxCell id="oq1mm7NXk6ubCHMGpvL8-52" value="" style="html=1;points=[[0,0,0,0,5],[0,1,0,0,-5],[1,0,0,0,5],[1,1,0,0,-5]];perimeter=orthogonalPerimeter;outlineConnect=0;targetShapes=umlLifeline;portConstraint=eastwest;newEdgeStyle={&quot;curved&quot;:0,&quot;rounded&quot;:0};" vertex="1" parent="1">
          <mxGeometry x="-135" y="70" width="10" height="30" as="geometry" />
        </mxCell>
        <mxCell id="oq1mm7NXk6ubCHMGpvL8-54" style="edgeStyle=orthogonalEdgeStyle;rounded=0;orthogonalLoop=1;jettySize=auto;html=1;curved=0;" edge="1" parent="1" source="oq1mm7NXk6ubCHMGpvL8-52" target="oq1mm7NXk6ubCHMGpvL8-57">
          <mxGeometry relative="1" as="geometry">
            <mxPoint x="-125" y="30" as="sourcePoint" />
            <mxPoint x="-395" y="30" as="targetPoint" />
            <Array as="points">
              <mxPoint x="-260" y="80" />
              <mxPoint x="-260" y="80" />
            </Array>
          </mxGeometry>
        </mxCell>
        <mxCell id="oq1mm7NXk6ubCHMGpvL8-55" value="Habilitar chat" style="edgeLabel;html=1;align=center;verticalAlign=middle;resizable=0;points=[];" vertex="1" connectable="0" parent="oq1mm7NXk6ubCHMGpvL8-54">
          <mxGeometry x="-0.0163" y="2" relative="1" as="geometry">
            <mxPoint y="-2" as="offset" />
          </mxGeometry>
        </mxCell>
        <mxCell id="oq1mm7NXk6ubCHMGpvL8-58" value="" style="edgeStyle=orthogonalEdgeStyle;rounded=0;orthogonalLoop=1;jettySize=auto;html=1;endArrow=none;endFill=0;dashed=1;dashPattern=8 8;exitX=0.5;exitY=1;exitDx=0;exitDy=0;" edge="1" parent="1" source="oq1mm7NXk6ubCHMGpvL8-31" target="oq1mm7NXk6ubCHMGpvL8-57">
          <mxGeometry relative="1" as="geometry">
            <mxPoint x="-410" y="220" as="targetPoint" />
            <mxPoint x="-410" y="40" as="sourcePoint" />
            <Array as="points">
              <mxPoint x="-410" y="100" />
              <mxPoint x="-410" y="100" />
            </Array>
          </mxGeometry>
        </mxCell>
        <mxCell id="oq1mm7NXk6ubCHMGpvL8-57" value="" style="html=1;points=[[0,0,0,0,5],[0,1,0,0,-5],[1,0,0,0,5],[1,1,0,0,-5]];perimeter=orthogonalPerimeter;outlineConnect=0;targetShapes=umlLifeline;portConstraint=eastwest;newEdgeStyle={&quot;curved&quot;:0,&quot;rounded&quot;:0};" vertex="1" parent="1">
          <mxGeometry x="-415" y="70" width="10" height="30" as="geometry" />
        </mxCell>
        <mxCell id="oq1mm7NXk6ubCHMGpvL8-61" value="" style="html=1;points=[[0,0,0,0,5],[0,1,0,0,-5],[1,0,0,0,5],[1,1,0,0,-5]];perimeter=orthogonalPerimeter;outlineConnect=0;targetShapes=umlLifeline;portConstraint=eastwest;newEdgeStyle={&quot;curved&quot;:0,&quot;rounded&quot;:0};" vertex="1" parent="1">
          <mxGeometry x="-665" y="70" width="10" height="30" as="geometry" />
        </mxCell>
        <mxCell id="oq1mm7NXk6ubCHMGpvL8-65" style="edgeStyle=orthogonalEdgeStyle;rounded=0;orthogonalLoop=1;jettySize=auto;html=1;curved=0;startArrow=classic;startFill=1;endArrow=none;endFill=0;" edge="1" parent="1" source="oq1mm7NXk6ubCHMGpvL8-61" target="oq1mm7NXk6ubCHMGpvL8-57">
          <mxGeometry relative="1" as="geometry">
            <mxPoint x="-645" y="40" as="sourcePoint" />
            <mxPoint x="-405" y="40" as="targetPoint" />
            <Array as="points">
              <mxPoint x="-540" y="90" />
              <mxPoint x="-540" y="90" />
            </Array>
          </mxGeometry>
        </mxCell>
        <mxCell id="oq1mm7NXk6ubCHMGpvL8-66" value="Mostrar chat" style="edgeLabel;html=1;align=center;verticalAlign=middle;resizable=0;points=[];" vertex="1" connectable="0" parent="oq1mm7NXk6ubCHMGpvL8-65">
          <mxGeometry x="-0.0211" y="-2" relative="1" as="geometry">
            <mxPoint y="-3" as="offset" />
          </mxGeometry>
        </mxCell>
        <mxCell id="oq1mm7NXk6ubCHMGpvL8-67" value="" style="edgeStyle=none;orthogonalLoop=1;jettySize=auto;html=1;rounded=0;endArrow=none;endFill=0;dashed=1;dashPattern=1 1;" edge="1" parent="1">
          <mxGeometry width="100" relative="1" as="geometry">
            <mxPoint x="-710" y="130" as="sourcePoint" />
            <mxPoint x="-40" y="130" as="targetPoint" />
            <Array as="points" />
          </mxGeometry>
        </mxCell>
        <mxCell id="oq1mm7NXk6ubCHMGpvL8-69" style="edgeStyle=orthogonalEdgeStyle;rounded=0;orthogonalLoop=1;jettySize=auto;html=1;curved=0;endArrow=open;endFill=0;" edge="1" parent="1">
          <mxGeometry relative="1" as="geometry">
            <mxPoint x="-655" y="165" as="sourcePoint" />
            <mxPoint x="-415" y="165" as="targetPoint" />
            <Array as="points" />
          </mxGeometry>
        </mxCell>
        <mxCell id="oq1mm7NXk6ubCHMGpvL8-70" value="Revisar perfil" style="edgeLabel;html=1;align=center;verticalAlign=middle;resizable=0;points=[];" vertex="1" connectable="0" parent="oq1mm7NXk6ubCHMGpvL8-69">
          <mxGeometry x="-0.0211" y="-2" relative="1" as="geometry">
            <mxPoint y="-3" as="offset" />
          </mxGeometry>
        </mxCell>
        <mxCell id="oq1mm7NXk6ubCHMGpvL8-71" value="" style="html=1;points=[[0,0,0,0,5],[0,1,0,0,-5],[1,0,0,0,5],[1,1,0,0,-5]];perimeter=orthogonalPerimeter;outlineConnect=0;targetShapes=umlLifeline;portConstraint=eastwest;newEdgeStyle={&quot;curved&quot;:0,&quot;rounded&quot;:0};" vertex="1" parent="1">
          <mxGeometry x="-665" y="155" width="10" height="85" as="geometry" />
        </mxCell>
        <mxCell id="oq1mm7NXk6ubCHMGpvL8-72" value="" style="html=1;points=[[0,0,0,0,5],[0,1,0,0,-5],[1,0,0,0,5],[1,1,0,0,-5]];perimeter=orthogonalPerimeter;outlineConnect=0;targetShapes=umlLifeline;portConstraint=eastwest;newEdgeStyle={&quot;curved&quot;:0,&quot;rounded&quot;:0};" vertex="1" parent="1">
          <mxGeometry x="-415" y="155" width="10" height="85" as="geometry" />
        </mxCell>
        <mxCell id="oq1mm7NXk6ubCHMGpvL8-73" style="edgeStyle=orthogonalEdgeStyle;rounded=0;orthogonalLoop=1;jettySize=auto;html=1;curved=0;endArrow=open;endFill=0;" edge="1" parent="1">
          <mxGeometry relative="1" as="geometry">
            <mxPoint x="-653" y="195" as="sourcePoint" />
            <mxPoint x="-413" y="195" as="targetPoint" />
            <Array as="points" />
          </mxGeometry>
        </mxCell>
        <mxCell id="oq1mm7NXk6ubCHMGpvL8-74" value="Dar dislike" style="edgeLabel;html=1;align=center;verticalAlign=middle;resizable=0;points=[];" vertex="1" connectable="0" parent="oq1mm7NXk6ubCHMGpvL8-73">
          <mxGeometry x="-0.0211" y="-2" relative="1" as="geometry">
            <mxPoint y="-3" as="offset" />
          </mxGeometry>
        </mxCell>
        <mxCell id="oq1mm7NXk6ubCHMGpvL8-75" style="edgeStyle=orthogonalEdgeStyle;rounded=0;orthogonalLoop=1;jettySize=auto;html=1;curved=0;startArrow=open;startFill=0;endArrow=none;endFill=0;dashed=1;" edge="1" parent="1" source="oq1mm7NXk6ubCHMGpvL8-71" target="oq1mm7NXk6ubCHMGpvL8-72">
          <mxGeometry relative="1" as="geometry">
            <mxPoint x="-645" y="115" as="sourcePoint" />
            <mxPoint x="-405" y="115" as="targetPoint" />
            <Array as="points">
              <mxPoint x="-550" y="225" />
              <mxPoint x="-550" y="225" />
            </Array>
          </mxGeometry>
        </mxCell>
        <mxCell id="oq1mm7NXk6ubCHMGpvL8-76" value="Mostrar siguiente perfil" style="edgeLabel;html=1;align=center;verticalAlign=middle;resizable=0;points=[];" vertex="1" connectable="0" parent="oq1mm7NXk6ubCHMGpvL8-75">
          <mxGeometry x="-0.0211" y="-2" relative="1" as="geometry">
            <mxPoint y="-3" as="offset" />
          </mxGeometry>
        </mxCell>
        <mxCell id="oq1mm7NXk6ubCHMGpvL8-77" style="edgeStyle=orthogonalEdgeStyle;rounded=0;orthogonalLoop=1;jettySize=auto;html=1;curved=0;endArrow=open;endFill=0;" edge="1" parent="1" source="oq1mm7NXk6ubCHMGpvL8-72" target="oq1mm7NXk6ubCHMGpvL8-81">
          <mxGeometry relative="1" as="geometry">
            <mxPoint x="-395" y="55" as="sourcePoint" />
            <mxPoint x="-125" y="55" as="targetPoint" />
            <Array as="points">
              <mxPoint x="-270" y="205" />
              <mxPoint x="-270" y="205" />
            </Array>
          </mxGeometry>
        </mxCell>
        <mxCell id="oq1mm7NXk6ubCHMGpvL8-78" value="Notificar acción" style="edgeLabel;html=1;align=center;verticalAlign=middle;resizable=0;points=[];" vertex="1" connectable="0" parent="oq1mm7NXk6ubCHMGpvL8-77">
          <mxGeometry x="-0.0211" y="-2" relative="1" as="geometry">
            <mxPoint y="-3" as="offset" />
          </mxGeometry>
        </mxCell>
        <mxCell id="oq1mm7NXk6ubCHMGpvL8-81" value="" style="html=1;points=[[0,0,0,0,5],[0,1,0,0,-5],[1,0,0,0,5],[1,1,0,0,-5]];perimeter=orthogonalPerimeter;outlineConnect=0;targetShapes=umlLifeline;portConstraint=eastwest;newEdgeStyle={&quot;curved&quot;:0,&quot;rounded&quot;:0};" vertex="1" parent="1">
          <mxGeometry x="-135" y="195" width="10" height="85" as="geometry" />
        </mxCell>
        <mxCell id="oq1mm7NXk6ubCHMGpvL8-82" style="edgeStyle=orthogonalEdgeStyle;rounded=0;orthogonalLoop=1;jettySize=auto;html=1;curved=0;endArrow=open;endFill=0;" edge="1" parent="1">
          <mxGeometry relative="1" as="geometry">
            <mxPoint x="-135" y="236.9655172413793" as="sourcePoint" />
            <mxPoint x="-135" y="261.9999999999998" as="targetPoint" />
            <Array as="points">
              <mxPoint x="-200" y="237" />
            </Array>
          </mxGeometry>
        </mxCell>
        <mxCell id="oq1mm7NXk6ubCHMGpvL8-94" value="Verificar accion" style="edgeLabel;html=1;align=center;verticalAlign=middle;resizable=0;points=[];" vertex="1" connectable="0" parent="1">
          <mxGeometry x="-250.00052276445786" y="250.00469509682353" as="geometry" />
        </mxCell>
        <mxCell id="oq1mm7NXk6ubCHMGpvL8-95" style="edgeStyle=orthogonalEdgeStyle;rounded=0;orthogonalLoop=1;jettySize=auto;html=1;endArrow=none;endFill=0;dashed=1;dashPattern=8 8;" edge="1" parent="1" source="oq1mm7NXk6ubCHMGpvL8-61" target="oq1mm7NXk6ubCHMGpvL8-71">
          <mxGeometry relative="1" as="geometry">
            <mxPoint x="-400" y="230" as="targetPoint" />
            <mxPoint x="-400" y="110" as="sourcePoint" />
            <Array as="points">
              <mxPoint x="-660" y="198" />
              <mxPoint x="-660" y="198" />
            </Array>
          </mxGeometry>
        </mxCell>
        <mxCell id="oq1mm7NXk6ubCHMGpvL8-98" value="" style="edgeStyle=none;orthogonalLoop=1;jettySize=auto;html=1;rounded=0;endArrow=none;endFill=0;dashed=1;dashPattern=1 1;" edge="1" parent="1">
          <mxGeometry width="100" relative="1" as="geometry">
            <mxPoint x="-710" y="305" as="sourcePoint" />
            <mxPoint x="-40" y="305" as="targetPoint" />
            <Array as="points" />
          </mxGeometry>
        </mxCell>
        <mxCell id="oq1mm7NXk6ubCHMGpvL8-99" value="" style="html=1;points=[[0,0,0,0,5],[0,1,0,0,-5],[1,0,0,0,5],[1,1,0,0,-5]];perimeter=orthogonalPerimeter;outlineConnect=0;targetShapes=umlLifeline;portConstraint=eastwest;newEdgeStyle={&quot;curved&quot;:0,&quot;rounded&quot;:0};" vertex="1" parent="1">
          <mxGeometry x="-665" y="346" width="10" height="134" as="geometry" />
        </mxCell>
        <mxCell id="oq1mm7NXk6ubCHMGpvL8-100" value="" style="html=1;points=[[0,0,0,0,5],[0,1,0,0,-5],[1,0,0,0,5],[1,1,0,0,-5]];perimeter=orthogonalPerimeter;outlineConnect=0;targetShapes=umlLifeline;portConstraint=eastwest;newEdgeStyle={&quot;curved&quot;:0,&quot;rounded&quot;:0};" vertex="1" parent="1">
          <mxGeometry x="-415" y="346" width="10" height="134" as="geometry" />
        </mxCell>
        <mxCell id="oq1mm7NXk6ubCHMGpvL8-101" style="edgeStyle=orthogonalEdgeStyle;rounded=0;orthogonalLoop=1;jettySize=auto;html=1;curved=0;endArrow=open;endFill=0;" edge="1" parent="1">
          <mxGeometry relative="1" as="geometry">
            <mxPoint x="-653" y="386" as="sourcePoint" />
            <mxPoint x="-413" y="386" as="targetPoint" />
            <Array as="points" />
          </mxGeometry>
        </mxCell>
        <mxCell id="oq1mm7NXk6ubCHMGpvL8-102" value="Dar like" style="edgeLabel;html=1;align=center;verticalAlign=middle;resizable=0;points=[];" vertex="1" connectable="0" parent="oq1mm7NXk6ubCHMGpvL8-101">
          <mxGeometry x="-0.0211" y="-2" relative="1" as="geometry">
            <mxPoint y="-3" as="offset" />
          </mxGeometry>
        </mxCell>
        <mxCell id="oq1mm7NXk6ubCHMGpvL8-103" style="edgeStyle=orthogonalEdgeStyle;rounded=0;orthogonalLoop=1;jettySize=auto;html=1;curved=0;startArrow=classic;startFill=1;endArrow=none;endFill=0;" edge="1" parent="1" source="oq1mm7NXk6ubCHMGpvL8-99" target="oq1mm7NXk6ubCHMGpvL8-100">
          <mxGeometry relative="1" as="geometry">
            <mxPoint x="-645" y="306" as="sourcePoint" />
            <mxPoint x="-405" y="306" as="targetPoint" />
            <Array as="points">
              <mxPoint x="-550" y="416" />
              <mxPoint x="-550" y="416" />
            </Array>
          </mxGeometry>
        </mxCell>
        <mxCell id="oq1mm7NXk6ubCHMGpvL8-104" value="Mostrar la animación de la acción" style="edgeLabel;html=1;align=center;verticalAlign=middle;resizable=0;points=[];" vertex="1" connectable="0" parent="oq1mm7NXk6ubCHMGpvL8-103">
          <mxGeometry x="-0.0211" y="-2" relative="1" as="geometry">
            <mxPoint y="-3" as="offset" />
          </mxGeometry>
        </mxCell>
        <mxCell id="oq1mm7NXk6ubCHMGpvL8-105" style="edgeStyle=orthogonalEdgeStyle;rounded=0;orthogonalLoop=1;jettySize=auto;html=1;curved=0;endArrow=open;endFill=0;" edge="1" parent="1" source="oq1mm7NXk6ubCHMGpvL8-100" target="oq1mm7NXk6ubCHMGpvL8-109">
          <mxGeometry relative="1" as="geometry">
            <mxPoint x="-395" y="246" as="sourcePoint" />
            <mxPoint x="-125" y="246" as="targetPoint" />
            <Array as="points">
              <mxPoint x="-270" y="396" />
              <mxPoint x="-270" y="396" />
            </Array>
          </mxGeometry>
        </mxCell>
        <mxCell id="oq1mm7NXk6ubCHMGpvL8-106" value="Notificar acción" style="edgeLabel;html=1;align=center;verticalAlign=middle;resizable=0;points=[];" vertex="1" connectable="0" parent="oq1mm7NXk6ubCHMGpvL8-105">
          <mxGeometry x="-0.0211" y="-2" relative="1" as="geometry">
            <mxPoint y="-3" as="offset" />
          </mxGeometry>
        </mxCell>
        <mxCell id="oq1mm7NXk6ubCHMGpvL8-109" value="" style="html=1;points=[[0,0,0,0,5],[0,1,0,0,-5],[1,0,0,0,5],[1,1,0,0,-5]];perimeter=orthogonalPerimeter;outlineConnect=0;targetShapes=umlLifeline;portConstraint=eastwest;newEdgeStyle={&quot;curved&quot;:0,&quot;rounded&quot;:0};" vertex="1" parent="1">
          <mxGeometry x="-135" y="386" width="10" height="84" as="geometry" />
        </mxCell>
        <mxCell id="oq1mm7NXk6ubCHMGpvL8-110" style="edgeStyle=orthogonalEdgeStyle;rounded=0;orthogonalLoop=1;jettySize=auto;html=1;curved=0;endArrow=open;endFill=0;" edge="1" parent="1">
          <mxGeometry relative="1" as="geometry">
            <mxPoint x="-135" y="427.9655172413793" as="sourcePoint" />
            <mxPoint x="-135" y="452.9999999999998" as="targetPoint" />
            <Array as="points">
              <mxPoint x="-200" y="428" />
            </Array>
          </mxGeometry>
        </mxCell>
        <mxCell id="oq1mm7NXk6ubCHMGpvL8-111" value="Verificar accion y si el otro perfil&amp;nbsp;&lt;div&gt;le dio like también&lt;/div&gt;" style="edgeLabel;html=1;align=center;verticalAlign=middle;resizable=0;points=[];" vertex="1" connectable="0" parent="oq1mm7NXk6ubCHMGpvL8-110">
          <mxGeometry x="-0.2949" y="-1" relative="1" as="geometry">
            <mxPoint x="-92" y="14" as="offset" />
          </mxGeometry>
        </mxCell>
        <mxCell id="oq1mm7NXk6ubCHMGpvL8-119" style="edgeStyle=orthogonalEdgeStyle;rounded=0;orthogonalLoop=1;jettySize=auto;html=1;endArrow=none;endFill=0;dashed=1;dashPattern=8 8;" edge="1" parent="1" source="oq1mm7NXk6ubCHMGpvL8-71" target="oq1mm7NXk6ubCHMGpvL8-99">
          <mxGeometry relative="1" as="geometry">
            <mxPoint x="-650" y="165" as="targetPoint" />
            <mxPoint x="-650" y="110" as="sourcePoint" />
            <Array as="points">
              <mxPoint x="-660" y="320" />
              <mxPoint x="-660" y="320" />
            </Array>
          </mxGeometry>
        </mxCell>
        <mxCell id="oq1mm7NXk6ubCHMGpvL8-120" style="edgeStyle=orthogonalEdgeStyle;rounded=0;orthogonalLoop=1;jettySize=auto;html=1;endArrow=none;endFill=0;dashed=1;dashPattern=8 8;" edge="1" parent="1" source="oq1mm7NXk6ubCHMGpvL8-72" target="oq1mm7NXk6ubCHMGpvL8-100">
          <mxGeometry relative="1" as="geometry">
            <mxPoint x="-650" y="356" as="targetPoint" />
            <mxPoint x="-650" y="250" as="sourcePoint" />
            <Array as="points">
              <mxPoint x="-410" y="320" />
              <mxPoint x="-410" y="320" />
            </Array>
          </mxGeometry>
        </mxCell>
        <mxCell id="oq1mm7NXk6ubCHMGpvL8-121" style="edgeStyle=orthogonalEdgeStyle;rounded=0;orthogonalLoop=1;jettySize=auto;html=1;endArrow=none;endFill=0;dashed=1;dashPattern=8 8;" edge="1" parent="1" source="oq1mm7NXk6ubCHMGpvL8-81" target="oq1mm7NXk6ubCHMGpvL8-109">
          <mxGeometry relative="1" as="geometry">
            <mxPoint x="-640" y="366" as="targetPoint" />
            <mxPoint x="-640" y="260" as="sourcePoint" />
            <Array as="points">
              <mxPoint x="-130" y="370" />
              <mxPoint x="-130" y="370" />
            </Array>
          </mxGeometry>
        </mxCell>
        <mxCell id="oq1mm7NXk6ubCHMGpvL8-122" style="edgeStyle=orthogonalEdgeStyle;rounded=0;orthogonalLoop=1;jettySize=auto;html=1;curved=0;startArrow=open;startFill=0;endArrow=none;endFill=0;dashed=1;" edge="1" parent="1" source="oq1mm7NXk6ubCHMGpvL8-99" target="oq1mm7NXk6ubCHMGpvL8-100">
          <mxGeometry relative="1" as="geometry">
            <mxPoint x="-645" y="235" as="sourcePoint" />
            <mxPoint x="-405" y="235" as="targetPoint" />
            <Array as="points">
              <mxPoint x="-530" y="460" />
              <mxPoint x="-530" y="460" />
            </Array>
          </mxGeometry>
        </mxCell>
        <mxCell id="oq1mm7NXk6ubCHMGpvL8-123" value="Mostrar siguiente perfil" style="edgeLabel;html=1;align=center;verticalAlign=middle;resizable=0;points=[];" vertex="1" connectable="0" parent="oq1mm7NXk6ubCHMGpvL8-122">
          <mxGeometry x="-0.0211" y="-2" relative="1" as="geometry">
            <mxPoint y="-3" as="offset" />
          </mxGeometry>
        </mxCell>
      </root>
    </mxGraphModel>
  </diagram>
</mxfile>
